<svg width="34" height="31" viewBox="0 0 34 31" fill="none" xmlns="http://www.w3.org/2000/svg">
<path d="M28.6029 1L10.1846 11.2595L14.8258 17.7573L32.1693 4.41985L28.6029 1Z" fill="#F38226" stroke="black" stroke-width="0.0977099"/>
<path d="M16.5848 20.5908L17.1711 21.9588L16.6825 21.5679L16.3894 21.4214L15.9008 21.3237H15.2169C15.1192 21.3237 15.0703 21.2748 15.0703 21.1771V21.0624V20.6885L15.2169 20.3954L15.4612 20.1511L15.8031 20.0046L16.0474 20.1023L16.2917 20.2L16.5848 20.5908Z" fill="#ED5829" stroke="black" stroke-width="0.0977099"/>
<path d="M1.09771 21.7634L1.58626 21.5191L2.80763 23.9618L2.56336 24.1084H2.27023L2.02595 23.9618L1.87939 23.8153L1.68397 23.5221L1.48855 23.1802L1.34198 22.887L1.19542 22.5939L1.09771 22.3496L1 22.1053V21.9588L1.09771 21.7634Z" fill="#ED5829" stroke="black" stroke-width="0.0977099"/>
<path d="M15.4123 21.2748L15.1192 21.3725L15.0703 21.6168L16.0474 24.1084L16.194 24.1572L16.3406 24.4015L16.4871 24.7924L16.3894 25.2809L15.0215 26.1114L15.168 26.3557L15.3635 26.5511L15.6077 26.6977L15.8032 26.7954L16.0474 26.8931H16.3406L16.6826 26.8443L17.1222 26.6489L17.5619 26.4046L17.9528 26.1114L18.1971 25.8672L18.3925 25.6718L18.4413 25.2321L18.4902 24.8901L18.4413 24.5481L18.3925 24.3038L18.3436 24.1084L18.0016 23.3756L17.7574 22.8382L17.4154 22.3008L17.1711 21.9588L17.0245 21.8122L16.7314 21.6168L16.4871 21.4214L16.2429 21.3237L15.9497 21.226H15.7055L15.4123 21.2748Z" fill="#6A6060" stroke="black" stroke-width="0.0977099"/>
<path d="M9.06117 29.9221L8.81689 29.7756L11.6993 28.2122V28.5542L11.6016 28.8962L11.4062 29.2382L11.1131 29.4824L10.8199 29.7267L10.3803 29.9221L10.0383 30.0687H9.69628L9.3543 30.0199L9.06117 29.9221Z" fill="#6A6060" stroke="black" stroke-width="0.0977099"/>
<path d="M9.69618 11.5038L10.1359 11.3573L11.455 12.3832L12.6275 13.7023L13.3115 14.5817L13.9466 15.3634L14.6305 16.3405L14.9725 16.9267L15.4122 17.7084L15.8519 18.5389L16.145 19.1252L16.4382 19.8092L17.0244 21.5679L16.7313 20.884L16.5359 20.4931L16.3405 20.2489L16.145 20.1023L15.8031 20.0046L15.5588 20.1023L15.3634 20.2L15.2168 20.3954L15.0702 20.5908V20.884L15.0214 21.1282L15.1191 21.5679L15.2656 22.1053L15.6076 23.1802L16.0473 24.1084L16.1939 24.2061L16.3405 24.4015L16.4382 24.7172V24.9389V25.1344L16.3893 25.2809L13.6534 26.942L11.6992 28.1145L10.6733 28.7008L7.05802 30.6061H6.8626L6.66718 30.5573L6.32519 30.313L6.03206 30.0198L5.64122 29.5802L5.29924 29.0916L5.00611 28.5542L4.81069 28.1634V27.9679V27.8214L3.78473 26.4534L3.54046 26.1115L3.19847 25.5252L3.00305 25.0855L2.9542 24.8901L2.90534 24.6458V24.4015L2.9542 24.2061L2.90534 24.1084L2.75878 23.8641L2.5145 23.2779L1.9771 22.2519L1.83053 21.9099L1.68397 21.6168L1.58626 21.3237L1.48855 21.1282L1.39084 20.8351L1.34198 20.5908L1.24427 20.3466V20.1511L1.19542 19.9069V19.7115L1.14656 19.516L1 19.2718L1.04885 18.6366L1.19542 18.2458L1.39084 17.8061L1.48855 17.5618L1.68397 17.171L1.9771 16.7313L2.41679 16.2916L3.58931 15.2657L4.95725 14.1908L5.78779 13.5557L6.56947 13.0672L7.54657 12.3832L8.3771 12.0412L9.01221 11.7969L9.69618 11.5038Z" fill="#F38226" stroke="black" stroke-width="0.0977099"/>
<path d="M14.0445 21.7634L12.6277 22.4962L9.35443 17.1221L8.96359 16.4382L8.57275 15.7542L8.27962 15.3145L8.0842 14.8748L7.88878 14.5328L7.69336 14.0931L10.5758 12.6275L14.5819 19.7115L14.5331 19.7603L14.3865 20.0046L14.2399 20.2977L14.1422 20.5908L14.0445 20.884L13.9956 21.1283V21.4214L14.0445 21.7634Z" fill="#ED5829" stroke="black" stroke-width="0.0977099"/>
<path d="M12.3343 16.5847L10.3801 13.2137L10.2335 13.2626L9.94039 13.3603L8.5236 14.0443L8.23047 14.2886L8.27932 14.5328L8.47474 14.9725L10.9175 19.1741L11.3572 18.9298L11.748 18.6855L12.0412 18.4901L12.2854 18.197L12.3831 17.9038L12.4809 17.4641V17.0244L12.3343 16.5847Z" fill="#64F0E2" stroke="black" stroke-width="0.0977099"/>
<path d="M6.2762 29.8733L5.98307 29.971L5.54337 29.4824L5.20139 28.945L4.95711 28.4565L4.81055 28.0656L4.90826 27.8702L7.83955 25.9649L10.2334 24.4992L11.6502 23.6198L12.5785 23.0336L13.409 22.5939L13.7999 22.4473L14.1418 22.887L14.4838 23.4244L14.9235 24.1573L15.0701 24.0595L15.3144 23.913L15.6075 23.8641L15.8029 24.255L13.6533 25.6718L9.20749 28.3099L7.25329 29.5313L6.71589 29.7756L6.2762 29.8733Z" fill="#D9D9D9" stroke="black" stroke-width="0.0977099"/>
<path d="M6.42282 29.4824L7.93732 28.6991L7.59534 28.6031L7.35106 28.4076L7.10679 28.1634L6.86251 28.0168L6.66709 27.8635L6.37396 27.9679L6.08083 28.0202L5.88541 28.1246L5.69 28.1768L5.64114 28.2813L5.59229 28.438L5.69 28.6469L5.83656 28.9602L5.98312 29.1169L6.12969 29.3258L6.2274 29.4302L6.42282 29.4824Z" fill="#D6F31D" stroke="black" stroke-width="0.0977099"/>
<path d="M10.1846 19.4672L7.4976 14.6305L6.91134 14.9237L6.22737 15.3145L5.59226 15.7542L4.95714 16.1939L4.41974 16.5847L3.83348 17.0244L2.95409 17.7573L2.36783 18.2947L1.92814 18.6855L1.48844 19.0763L1.19531 19.516L1.24417 19.7603V19.9069L1.29302 20.2L1.34188 20.4443L1.39073 20.7374L1.48844 20.9817L1.63501 21.4214L2.02585 22.2519L2.36783 22.9359L2.66096 23.571L2.85638 23.9618L3.0518 24.2061L10.1846 19.4672Z" fill="#64F0E2" stroke="black" stroke-width="0.0977099"/>
<path d="M13.751 23.913L13.6533 23.6687L12.9693 24.0595L12.6273 24.255L12.4807 24.3527L12.383 24.4504L12.2853 24.5481L12.2365 24.6947L12.1876 24.8901L12.1388 25.1832L12.0899 25.4275L11.9922 25.7206V26.0137L12.0899 26.258L12.2853 26.1114L12.725 25.8672L13.2624 25.574L13.5067 25.3786L13.751 25.1832L13.8487 24.9878L13.8975 24.6947L13.8487 24.4504L13.7998 24.1573L13.751 23.913Z" fill="#D6F31D" stroke="black" stroke-width="0.0977099"/>
<path d="M11.2108 26.6977L8.62149 28.2611L8.41996 28.1389L8.21844 28.0168L8.05722 27.9191L7.83981 27.7873L7.59554 27.6393L7.30241 27.4616L7.00928 27.284L11.0154 24.8901L11.0524 25.2321L11.0893 25.574L11.1157 25.8183L11.1474 26.1114L11.1686 26.3069L11.1897 26.5023L11.2108 26.6977Z" fill="#D9D9D9"/>
<path d="M11.0524 25.2321L11.0154 24.8901L7.00928 27.284L7.30241 27.4616M11.0524 25.2321L7.30241 27.4616M11.0524 25.2321L11.0893 25.574M7.30241 27.4616L7.59554 27.6393M7.59554 27.6393L11.0893 25.574M7.59554 27.6393L7.83981 27.7873M11.0893 25.574L11.1157 25.8183M11.1157 25.8183L7.83981 27.7873M11.1157 25.8183L11.1474 26.1114M7.83981 27.7873L8.05722 27.9191M8.05722 27.9191L11.1474 26.1114M8.05722 27.9191L8.21844 28.0168M11.1474 26.1114L11.1686 26.3069M11.1686 26.3069L8.21844 28.0168M11.1686 26.3069L11.1897 26.5023M8.21844 28.0168L8.41996 28.1389M8.41996 28.1389L8.62149 28.2611L11.2108 26.6977L11.1897 26.5023M8.41996 28.1389L11.1897 26.5023" stroke="black" stroke-width="0.0977099"/>
<path d="M10.7221 15.6076L10.9663 15.5588L11.2106 15.6076L11.406 15.8031L11.5526 15.9985L11.7969 16.3405L11.9923 16.6824L12.1388 17.0733L12.2854 17.4641L12.2366 17.7573L12.0411 17.9527L11.8457 18.0992L11.6503 18.1969L11.406 18.2458L11.2106 18.1969L11.0152 19.3206L11.1129 19.4183L11.1618 19.6137L11.064 19.7114L10.9663 19.8092H10.8198L10.7221 19.7114L10.6243 19.4672V19.3206L10.6732 19.174L10.8198 19.2229L10.9663 18.0015L10.7709 17.7084L10.6243 17.4641L10.4289 17.1221L10.1847 16.6336L10.0381 16.2916V16.0962L10.2335 15.9008L10.5266 15.7053L10.7221 15.6076Z" fill="#ED5829" stroke="black" stroke-width="0.0977099"/>
<path d="M24.0596 13.5069L24.2061 13.2626L25.2809 12.1195V12.0412L25.3298 11.8458L25.4924 11.6281L25.7206 11.455L25.9161 11.4061L25.938 11.4208L27.284 9.98932L27.626 9.94046L27.8214 9.98932L28.0657 10.087L28.31 10.3313L28.5054 10.4779L28.6519 10.771L28.7008 11.0641L28.6519 11.455L28.3588 11.7969L28.2367 11.9435L27.2351 13.1453L25.9161 14.7282L25.7695 14.826L25.4764 14.8748H25.2321L25.0855 14.8015L24.939 14.7282L24.6458 14.5328L24.4016 14.2886L24.1573 13.9466L24.0596 13.7023V13.5069Z" fill="#D9D9D9"/>
<path d="M24.2061 13.2626L24.4504 13.0672L24.8412 13.0183H25.1832L25.3787 13.0672L25.6229 13.3115L25.8672 13.5557L25.9649 13.8489L26.0626 14.142L25.9649 14.4351L25.9161 14.7282M24.2061 13.2626L24.0596 13.5069V13.7023L24.1573 13.9466L24.4016 14.2886M24.2061 13.2626L25.2809 12.1195M24.4016 14.2886L24.6458 14.5328L24.939 14.7282L25.0855 14.8015M24.4016 14.2886V14.0443L24.5481 13.8489L24.6947 13.7023H24.939L25.1832 13.8L25.3298 13.9466L25.4764 14.142V14.2886L25.4275 14.5328L25.2809 14.7282L25.0855 14.8015M25.9161 14.7282L25.7695 14.826L25.4764 14.8748H25.2321L25.0855 14.8015M25.9161 14.7282L27.2351 13.1453M27.2351 13.1453L27.1863 12.8718L27.1374 12.6763L26.8443 12.4321L26.5023 12.1878L26.2092 12.0412L25.9649 11.9924L25.4924 11.8947M27.2351 13.1453L28.2367 11.9435M25.4924 11.8947L25.2809 12.1195M25.4924 11.8947L25.938 11.4208M26.6977 10.6733H26.942L27.2351 10.771L27.3817 10.8198L27.626 11.0153L27.8214 11.1618L28.0657 11.4061L28.1634 11.6015L28.2367 11.9435M28.2367 11.9435L28.3588 11.7969L28.6519 11.455L28.7008 11.0641L28.6519 10.771L28.5054 10.4779L28.31 10.3313L28.0657 10.087L27.8214 9.98932L27.626 9.94046L27.284 9.98932L25.938 11.4208M25.2809 12.1195L25.4275 12.2366L25.6229 12.2855L25.8183 12.1878L25.9649 12.0412L26.1115 11.8458L26.1603 11.6504L26.0626 11.5038L25.938 11.4208M25.2809 12.1195V12.0412L25.3298 11.8458L25.4924 11.6281L25.7206 11.455L25.9161 11.4061L25.938 11.4208M25.3298 12.0412L25.4764 12.0901L25.6229 11.9924L25.8183 11.8458L25.9161 11.6992L25.9649 11.5527L25.938 11.4208" stroke="black" stroke-width="0.0977099"/>
<path d="M28.701 8.62136L27.2354 9.9893L28.0659 10.0382L28.4567 10.3801L28.6033 10.7221L29.2384 10.0382L29.8735 9.40304L29.0918 8.62136L28.8964 8.57251L28.701 8.62136Z" fill="#D9D9D9" stroke="black" stroke-width="0.0977099"/>
<path d="M16.1938 22.6427V22.2519L16.2916 22.203L16.5358 22.3008L16.7801 22.4473L16.8778 22.5939V22.7405L17.1709 22.7893L17.3664 23.0238L17.4152 23.0824L17.5618 23.3756L17.6269 23.571L17.6595 23.6687V23.8641V24.0595L17.7084 24.2061V24.4504V24.6947L17.5129 24.8901L17.3664 24.7924L17.0732 24.5481L16.6824 24.0595L16.3893 23.571L16.2427 23.1313L16.1938 22.6427Z" fill="#D9D9D9"/>
<path d="M17.6595 24.0595L17.7084 24.2061V24.4504V24.6947L17.5129 24.8901L17.3664 24.7924L17.0732 24.5481L16.6824 24.0595L16.3893 23.571L16.2427 23.1313L16.1938 22.6427V22.2519L16.2916 22.203L16.5358 22.3008L16.7801 22.4473L16.8778 22.5939V22.7405M17.6595 24.0595L17.4152 24.1084L17.2198 24.0595L17.0732 23.7664L16.8778 23.4244L16.829 23.1801V22.887L16.8778 22.7405M17.6595 24.0595V23.8641V23.6687L17.6269 23.571M16.8778 22.7405L17.1709 22.7893L17.3664 23.0238M17.3664 23.0238L17.4152 23.0824L17.5618 23.3756L17.6269 23.571M17.3664 23.0238L17.2198 23.1801V23.3756L17.3664 23.571L17.5129 23.6687L17.6269 23.571" stroke="black" stroke-width="0.0977099"/>
<path d="M31.2413 5.64123L30.8016 5.54352L30.1665 6.08092L30.4596 6.03207H30.8993L31.339 6.22749L31.7787 6.47176L32.2184 6.76489L32.2673 6.66718V6.37405L31.9741 6.12978L31.5833 5.83665L31.2413 5.64123Z" fill="#ED5829" stroke="black" stroke-width="0.0977099"/>
<path d="M31.974 5.10382L31.3877 5.69008L31.3389 5.73894L32.316 6.37405L32.4137 6.27634L32.7068 5.93436L32.5602 5.64123L32.3648 5.3481L32.1694 5.15268L31.974 5.10382Z" fill="#D9D9D9" stroke="black" stroke-width="0.0977099"/>
<path d="M29.7269 11.2107L29.4826 11.0153L28.3101 7.83971L29.6291 6.56948L29.8734 6.3252L29.9711 6.25541L30.2154 6.08093L30.6062 6.03207L31.0948 6.12978L31.5345 6.3252L31.9253 6.56948L32.1696 6.86261L32.4139 7.15574L32.707 7.54658L32.9024 7.88856L33.0001 8.2794V8.7191L32.8536 9.20765L32.6093 9.59849L32.2673 9.89162L31.9253 10.2336L31.4856 10.5267L31.3391 10.771L30.9482 11.113L30.704 11.3084L30.1665 11.3573L29.7269 11.2107Z" fill="#6A6060"/>
<path d="M31.4856 10.5267L31.3391 10.771L30.9482 11.113L30.704 11.3084L30.1665 11.3573L29.7269 11.2107L29.4826 11.0153L28.3101 7.83971L29.6291 6.56948L29.8734 6.3252L29.9711 6.25541M31.4856 10.5267L31.9253 10.2336L32.2673 9.89162L32.6093 9.59849L32.8536 9.20765L33.0001 8.7191V8.2794L32.9024 7.88856L32.707 7.54658L32.4139 7.15574L32.1696 6.86261L31.9253 6.56948L31.5345 6.3252L31.0948 6.12978L30.6062 6.03207L30.2154 6.08093L29.9711 6.25541M31.4856 10.5267H31.2414H31.0948L30.8994 10.429L30.6551 10.3313L30.4597 10.1359L30.362 10.0382M32.6093 9.50078H32.365H32.1696L31.8276 9.35421L31.4856 9.10994L31.1925 8.86566L30.8994 8.57253L30.6551 8.32826L30.362 7.93742L30.1665 7.59543L30.02 7.25345L29.9711 6.91146V6.66719V6.42291V6.25541" stroke="black" stroke-width="0.0977099"/>
<path d="M30.8018 7.05803V6.86261L30.8995 6.81375L31.0949 6.86261L31.3392 7.00917L31.5834 7.20459L31.6811 7.3023L31.7789 7.40001L31.9254 7.59543L32.072 7.79085L32.1697 8.13284L32.1208 8.37711L31.7789 8.32826L31.4369 8.03513L31.1926 7.742L30.9483 7.40001L30.8018 7.05803Z" fill="#D9D9D9"/>
<path d="M31.9254 7.59543L32.072 7.79085L32.1697 8.13284L32.1208 8.37711L31.7789 8.32826L31.4369 8.03513L31.1926 7.742L30.9483 7.40001L30.8018 7.05803V6.86261L30.8995 6.81375L31.0949 6.86261L31.3392 7.00917L31.5834 7.20459M31.9254 7.59543L31.7789 7.40001L31.6811 7.3023L31.5834 7.20459M31.9254 7.59543L31.8277 7.69314H31.73L31.6323 7.59543L31.4857 7.49772L31.4369 7.35116L31.4857 7.25345L31.5834 7.20459" stroke="black" stroke-width="0.0977099"/>
<path d="M29.0428 11.3084L28.7008 10.9664L27.7726 9.40304L27.626 9.10991L27.5771 8.81678V8.52365L29.6779 6.5206L29.6291 6.86258L29.5802 7.35113L29.6291 7.79083L29.7756 8.18167L29.971 8.52365L30.2153 8.86564L30.7039 9.4519V9.64732L29.2382 11.2595L29.0428 11.3084Z" fill="#ED5829" stroke="black" stroke-width="0.0977099"/>
<path d="M21.4702 17.7573L24.3527 14.2397L25.0855 14.826L22.1053 18.3924L22.0076 18.197L21.7633 18.0015L21.4702 17.7573Z" fill="#D9D9D9" stroke="black" stroke-width="0.0977099"/>
<path d="M21.4213 17.2198L20.2488 16.9267L19.7603 17.6107H20.6396H21.0793L21.519 17.8061L21.9587 18.0504L22.3984 18.3435L22.4473 18.2458V17.9527L22.1541 17.7084L21.7633 17.4153L21.4213 17.2198Z" fill="#ED5829" stroke="black" stroke-width="0.0977099"/>
<path d="M19.5651 22.5939L19.3208 22.3985L18.3926 19.516L19.4674 17.9527L19.7117 17.7084L19.8094 17.6386L20.0536 17.4641L20.4445 17.4153L20.933 17.513L21.3727 17.7084L21.7636 17.9527L22.0078 18.2458L22.2521 18.5389L22.5453 18.9298L22.7407 19.2718L22.8384 19.6626V20.1023L22.6918 20.5908L22.4475 20.9817L22.1056 21.2748L21.7636 21.6168L21.3239 21.9099L21.1773 22.1542L20.7865 22.4962L20.5422 22.6916L20.0048 22.7405L19.5651 22.5939Z" fill="#6A6060"/>
<path d="M21.3239 21.9099L21.1773 22.1542L20.7865 22.4962L20.5422 22.6916L20.0048 22.7405L19.5651 22.5939L19.3208 22.3985L18.3926 19.516L19.4674 17.9527L19.7117 17.7084L19.8094 17.6386M21.3239 21.9099L21.7636 21.6168L22.1056 21.2748L22.4475 20.9817L22.6918 20.5908L22.8384 20.1023V19.6626L22.7407 19.2718L22.5453 18.9298L22.2521 18.5389L22.0078 18.2458L21.7636 17.9527L21.3727 17.7084L20.933 17.513L20.4445 17.4153L20.0536 17.4641L19.8094 17.6386M21.3239 21.9099H21.0796H20.933L20.7376 21.8122L20.4933 21.7145L20.2979 21.5191L20.2002 21.4214M22.4475 20.884H22.2033H22.0078L21.6659 20.7374L21.3239 20.4931L21.0307 20.2489L20.7376 19.9557L20.4933 19.7115L20.2002 19.3206L20.0048 18.9786L19.8582 18.6366L19.8094 18.2947V18.0504V17.8061V17.6386" stroke="black" stroke-width="0.0977099"/>
<path d="M20.6396 18.4412V18.2458L20.7374 18.1969L20.9328 18.2458L21.1771 18.3924L21.4213 18.5878L21.519 18.6855L21.6167 18.7832L21.7633 18.9786L21.9099 19.174L22.0076 19.516L21.9587 19.7603L21.6167 19.7114L21.2748 19.4183L21.0305 19.1252L20.7862 18.7832L20.6396 18.4412Z" fill="#D9D9D9"/>
<path d="M21.7633 18.9786L21.9099 19.174L22.0076 19.516L21.9587 19.7603L21.6167 19.7114L21.2748 19.4183L21.0305 19.1252L20.7862 18.7832L20.6396 18.4412V18.2458L20.7374 18.1969L20.9328 18.2458L21.1771 18.3924L21.4213 18.5878M21.7633 18.9786L21.6167 18.7832L21.519 18.6855L21.4213 18.5878M21.7633 18.9786L21.6656 19.0763H21.5679L21.4702 18.9786L21.3236 18.8809L21.2748 18.7343L21.3236 18.6366L21.4213 18.5878" stroke="black" stroke-width="0.0977099"/>
<path d="M19.2229 22.887L18.881 22.545L17.9527 20.9817L17.8062 20.6885V20.4443L18.0016 20.1511L19.6138 17.7572L19.6626 18.4412L19.7115 18.9298L19.8092 19.3695L19.9558 19.7603L20.1512 20.1023L20.3955 20.4443L20.884 21.0305V21.226L19.4184 22.8382L19.2229 22.887Z" fill="#ED5829" stroke="black" stroke-width="0.0977099"/>
<path d="M11.0216 11.971L10.2023 11.3459L10.4603 11.2252L10.7084 11.2018L11.01 11.1348L11.3602 11.0728L12.5751 11.1986L13.0024 11.3411L13.5704 11.5472L13.9391 11.7819L14.3999 12.0751L14.8992 12.4706L15.2628 12.7539L15.8392 13.3538L16.5949 14.1197L17.689 15.4118L18.6996 14.1902L19.8274 12.7844L21.1011 11.3937L22.7602 9.60081L24.2333 8.18161L25.15 7.39243L26.1152 6.60827L26.861 6.04697L27.4894 5.66999L28.1128 5.3416L28.5368 5.04169L29.0529 4.80043L29.5204 4.55414L29.9729 4.45363L30.3767 4.3481L30.732 4.23753L31.1794 4.18562L31.6654 4.23593L32.1413 4.38343L31.6586 4.77551L30.4738 5.78251L28.8985 7.24025L27.2059 8.88231L25.5569 10.578L23.7805 12.5552L21.9404 14.6731L20.4656 16.5833L19.3762 18.0914L18.1009 19.9731L17.0986 21.5884L16.7183 20.5176L16.1353 19.0328L15.2272 17.3671L14.6475 16.3248L13.7478 15.0528L12.8329 13.9267L11.9516 12.9513L11.0216 11.971Z" fill="#ED5829" stroke="black" stroke-width="0.0977099"/>
</svg>
